<svg xmlns="http://www.w3.org/2000/svg" xmlns:xlink="http://www.w3.org/1999/xlink" width="2000" zoomAndPan="magnify" viewBox="0 0 1500 1499.999933" height="2000" preserveAspectRatio="xMidYMid meet" version="1.0"><defs><g/></defs><g fill="#ffffff" fill-opacity="1"><g transform="translate(312.051129, 1152.795001)"><g><path d="M 480.578125 15.5 C 400.992188 15.5 330.710938 -1.550781 269.734375 -35.65625 C 208.765625 -69.757812 161.226562 -117.300781 127.125 -178.28125 C 93.019531 -239.257812 75.96875 -310.570312 75.96875 -392.21875 C 75.96875 -480.050781 93.273438 -554.972656 127.890625 -616.984375 C 162.515625 -678.992188 207.472656 -726.789062 262.765625 -760.375 C 318.054688 -793.96875 376.707031 -810.765625 438.71875 -810.765625 C 484.195312 -810.765625 528.378906 -802.753906 571.265625 -786.734375 C 614.148438 -770.710938 652.382812 -746.941406 685.96875 -715.421875 C 719.5625 -683.898438 746.429688 -645.398438 766.578125 -599.921875 C 786.734375 -554.453125 797.84375 -501.753906 799.90625 -441.828125 C 798.875 -429.421875 793.707031 -418.820312 784.40625 -410.03125 C 775.101562 -401.25 764.253906 -396.859375 751.859375 -396.859375 L 130.21875 -396.859375 L 111.625 -480.578125 L 722.40625 -480.578125 L 702.25 -461.96875 L 702.25 -492.984375 C 698.113281 -541.546875 682.609375 -582.878906 655.734375 -616.984375 C 628.867188 -651.085938 596.316406 -676.921875 558.078125 -694.484375 C 519.847656 -712.054688 480.0625 -720.84375 438.71875 -720.84375 C 407.71875 -720.84375 375.9375 -714.640625 343.375 -702.234375 C 310.820312 -689.835938 281.367188 -670.460938 255.015625 -644.109375 C 228.660156 -617.753906 207.210938 -584.164062 190.671875 -543.34375 C 174.140625 -502.53125 165.875 -454.222656 165.875 -398.421875 C 165.875 -337.441406 178.273438 -282.144531 203.078125 -232.53125 C 227.878906 -182.925781 263.789062 -143.65625 310.8125 -114.71875 C 357.84375 -85.78125 413.914062 -71.3125 479.03125 -71.3125 C 515.1875 -71.3125 547.734375 -76.476562 576.671875 -86.8125 C 605.609375 -97.144531 630.925781 -110.835938 652.625 -127.890625 C 674.332031 -144.941406 692.421875 -162.769531 706.890625 -181.375 C 718.265625 -190.675781 729.632812 -195.328125 741 -195.328125 C 751.332031 -195.328125 760.375 -191.191406 768.125 -182.921875 C 775.882812 -174.660156 779.765625 -165.363281 779.765625 -155.03125 C 779.765625 -142.625 774.59375 -131.769531 764.25 -122.46875 C 733.25 -85.257812 692.941406 -52.960938 643.328125 -25.578125 C 593.722656 1.804688 539.472656 15.5 480.578125 15.5 Z M 480.578125 15.5 "/></g></g></g></svg>